<?xml version="1.0" encoding="UTF-8"?>
<svg version="1.1" xmlns="http://www.w3.org/2000/svg" width="1000" height="1000">
<path d="M0 0 C3.15890297 0.00536234 6.31766381 0.00002109 9.4765625 -0.00634766 C27.30688969 -0.01482663 44.73668722 1.13140395 62.4140625 3.44287109 C63.6988298 3.6090242 63.6988298 3.6090242 65.009552 3.77853394 C77.50671797 5.40237379 89.89287533 7.21536496 102.1640625 10.13037109 C102.82664062 10.28328613 103.48921875 10.43620117 104.171875 10.59375 C142.46072121 19.48089151 179.54590522 33.32465445 214.11669922 52.02441406 C215.87892555 52.9763441 217.64782905 53.91589456 219.41796875 54.85302734 C225.8803437 58.30024016 232.02384525 62.14247868 238.1640625 66.13037109 C239.31442455 66.86451003 240.46549793 67.59753523 241.6171875 68.32958984 C253.99274948 76.2057126 265.69976792 84.74868444 277.30810547 93.70751953 C278.64674417 94.73377399 280.01454119 95.72238008 281.39892578 96.68603516 C281.9814209 97.16266602 282.56391602 97.63929688 283.1640625 98.13037109 C283.1640625 98.79037109 283.1640625 99.45037109 283.1640625 100.13037109 C285.6390625 101.12037109 285.6390625 101.12037109 288.1640625 102.13037109 C288.1640625 102.79037109 288.1640625 103.45037109 288.1640625 104.13037109 C288.74285156 104.39205078 289.32164062 104.65373047 289.91796875 104.92333984 C295.79533151 108.08178348 300.48967415 113.45598274 305.1640625 118.13037109 C306.45135525 119.23963399 307.7434496 120.34333754 309.0390625 121.44287109 C312.52432551 124.45644437 315.51860152 127.68876212 318.48828125 131.20458984 C320.11412545 133.07298422 321.81792252 134.7885654 323.6015625 136.50537109 C326.1640625 139.13037109 326.1640625 139.13037109 326.1640625 141.13037109 C327.1540625 141.46037109 328.1440625 141.79037109 329.1640625 142.13037109 C331.07421875 144.21240234 331.07421875 144.21240234 333.2265625 146.94287109 C334.02320313 147.94318359 334.81984375 148.94349609 335.640625 149.97412109 C336.05602539 150.49748047 336.47142578 151.02083984 336.89941406 151.56005859 C338.91589615 154.06392207 341.01650102 156.49604816 343.1015625 158.94287109 C354.14879639 172.19272194 363.62078646 186.78846221 372.7890625 201.38037109 C373.44132813 202.41677734 374.09359375 203.45318359 374.765625 204.52099609 C376.1640625 207.13037109 376.1640625 207.13037109 376.1640625 210.13037109 C376.8240625 210.13037109 377.4840625 210.13037109 378.1640625 210.13037109 C378.4321875 210.67822266 378.7003125 211.22607422 378.9765625 211.79052734 C381.25768414 216.40529646 383.60729234 220.96769649 386.07299805 225.48706055 C397.7989143 247.07131893 408.6145685 273.38834378 401.5390625 298.25537109 C397.22791295 310.10727701 389.5670832 318.50958579 378.4140625 324.38037109 C340.1924548 342.07644794 292.75642693 334.13068468 253.1640625 325.13037109 C251.67734058 324.80886669 250.19037889 324.4884681 248.703125 324.16943359 C237.33758033 321.67312533 226.20906557 318.32416151 215.06542969 314.99316406 C212.44815475 314.21485292 209.82708034 313.45219074 207.203125 312.69677734 C177.55723418 304.09729927 148.5869745 293.13531156 120.1640625 281.13037109 C119.24560547 280.74437744 119.24560547 280.74437744 118.30859375 280.35058594 C109.84195729 276.78746788 101.49089552 273.00702167 93.1640625 269.13037109 C88.14012094 266.82025511 83.10488189 264.53864794 78.0390625 262.32177734 C68.6594259 258.20881435 59.44681543 253.8731257 50.32128906 249.22509766 C46.27884071 247.17367864 42.22003029 245.15488769 38.1640625 243.13037109 C36.47389353 242.28544863 34.78378876 241.44039773 33.09375 240.59521484 C32.27100586 240.18384277 31.44826172 239.7724707 30.60058594 239.34863281 C12.1640625 230.13037109 12.1640625 230.13037109 9.09375 228.40771484 C5.7055389 226.93045481 3.82573249 226.64832846 0.1640625 227.13037109 C-2.41662868 228.20613593 -4.76350865 229.31231512 -7.2109375 230.63037109 C-8.63659199 231.37019875 -10.06237688 232.10977516 -11.48828125 232.84912109 C-12.21128418 233.22939453 -12.93428711 233.60966797 -13.67919922 234.00146484 C-17.02353979 235.75200037 -20.39675411 237.44328716 -23.7734375 239.13037109 C-24.43005371 239.45972656 -25.08666992 239.78908203 -25.76318359 240.12841797 C-31.29382826 242.89037535 -36.88242353 245.51956836 -42.48461914 248.13256836 C-47.26584639 250.37020671 -51.9985365 252.68903461 -56.7109375 255.06787109 C-69.41927069 261.46392982 -82.16077432 267.58988313 -95.4296875 272.73583984 C-98.64762555 274.05327549 -101.6901841 275.52658203 -104.7734375 277.13037109 C-110.68076471 280.17546708 -116.76081021 282.43697045 -122.9921875 284.70849609 C-126.14948112 285.86247768 -129.24642868 287.11619966 -132.3359375 288.44287109 C-163.26771416 301.45810601 -195.2932113 312.01789751 -227.8359375 320.13037109 C-229.48989903 320.5523126 -231.14358573 320.97533434 -232.796875 321.39990234 C-236.46985084 322.33843492 -240.15075086 323.24084328 -243.8359375 324.13037109 C-244.84785156 324.38173828 -245.85976562 324.63310547 -246.90234375 324.89208984 C-286.70114408 334.49869682 -339.25032282 343.79691342 -376.6484375 321.94287109 C-387.03547848 314.8448048 -393.25157134 305.98430917 -396.44140625 293.82177734 C-399.87144207 270.4228201 -392.05225906 247.95776741 -380.82421875 227.76318359 C-378.93770654 224.36547677 -377.25872541 220.88874865 -375.5859375 217.38037109 C-371.03910021 208.20345923 -365.4157196 199.70403839 -359.8359375 191.13037109 C-359.15660156 190.07076172 -358.47726562 189.01115234 -357.77734375 187.91943359 C-348.25923435 173.30453012 -337.70886342 159.53729222 -326.06884766 146.56054688 C-324.69664913 145.01049655 -324.69664913 145.01049655 -323.09765625 142.72021484 C-322.68128906 142.19556641 -322.26492188 141.67091797 -321.8359375 141.13037109 C-321.1759375 141.13037109 -320.5159375 141.13037109 -319.8359375 141.13037109 C-319.58070313 140.55931641 -319.32546875 139.98826172 -319.0625 139.39990234 C-315.45211099 132.71953288 -309.30155072 127.51384762 -303.56640625 122.67724609 C-301.67989157 121.08481978 -301.67989157 121.08481978 -299.8984375 118.63037109 C-297.3011199 115.48210734 -294.2752063 113.28938975 -291.0234375 110.84521484 C-289.15723153 109.38224267 -287.52916364 107.90610421 -285.8984375 106.19287109 C-285.2178125 105.51224609 -284.5371875 104.83162109 -283.8359375 104.13037109 C-283.1759375 104.13037109 -282.5159375 104.13037109 -281.8359375 104.13037109 C-281.8359375 103.47037109 -281.8359375 102.81037109 -281.8359375 102.13037109 C-268.28552472 89.51354975 -252.23626022 79.21446067 -236.66357422 69.30078125 C-234.84038904 68.13322184 -233.02648326 66.9524715 -231.21484375 65.76708984 C-224.25068591 61.21963062 -217.19942692 57.00589184 -209.8359375 53.13037109 C-208.68480469 52.50388672 -207.53367187 51.87740234 -206.34765625 51.23193359 C-192.05057236 43.45728316 -177.40074699 37.0080496 -162.25073242 31.08251953 C-160.63020395 30.44354865 -159.01317812 29.79562782 -157.3996582 29.13916016 C-134.65241621 19.88467285 -110.85751269 13.55781992 -86.84912109 8.55078125 C-84.99506788 8.16360206 -83.14386216 7.76285308 -81.29296875 7.36083984 C-71.87299896 5.43986454 -62.36697617 4.21679694 -52.8359375 3.00537109 C-52.16560486 2.91892334 -51.49527222 2.83247559 -50.80462646 2.7434082 C-33.84039805 0.57147251 -17.08641796 -0.03444842 0 0 Z " fill="#0BF15D" transform="translate(494.8359375,104.86962890625)"/>
<path d="M0 0 C0.87889893 0.37600342 1.75779785 0.75200684 2.66333008 1.1394043 C17.84450696 7.65092102 17.84450696 7.65092102 25.1640625 11.36132812 C29.51288115 13.53969092 33.91989573 15.59928468 38.3125 17.6875 C47.701444 22.16463878 57.02959091 26.74525309 66.3125 31.4375 C70.9090017 33.76028733 75.51356708 36.06500299 80.13085938 38.34619141 C82.5308323 39.54671501 84.91282705 40.77989965 87.296875 42.01171875 C88.98910986 42.86292112 90.68181084 43.7131975 92.375 44.5625 C93.16044189 44.97749756 93.94588379 45.39249512 94.75512695 45.82006836 C98.59945067 47.71732589 100.57187279 48.54698402 104.90625 47.90625 C108.58591467 46.3196056 112.1954095 44.65931833 115.75 42.8125 C117.16528195 42.09098371 118.58064894 41.36963422 119.99609375 40.6484375 C121.07093018 40.09687988 121.07093018 40.09687988 122.16748047 39.53417969 C125.53721608 37.81134195 128.9251364 36.12533576 132.3125 34.4375 C136.30434015 32.44450364 140.29435588 30.44813819 144.27734375 28.4375 C153.22245443 23.92918183 162.23825655 19.59667516 171.31884766 15.36816406 C173.11494495 14.52972139 174.90732056 13.68331727 176.69921875 12.8359375 C184.81691571 9.0080804 192.99072208 5.30644386 201.17614746 1.62631226 C202.45824811 1.04980865 203.7400757 0.47269733 205.02160645 -0.10507202 C212.3911841 -3.42548825 219.77396934 -6.6452453 227.3125 -9.5625 C228.24328369 -9.92480713 229.17406738 -10.28711426 230.13305664 -10.66040039 C236.72085676 -13.21627596 243.3209848 -15.74006617 249.92138672 -18.26318359 C253.03500376 -19.45617639 256.14468808 -20.65888486 259.25390625 -21.86328125 C293.24978034 -34.93861744 328.53292487 -45.63410374 364.3125 -52.5625 C365.25206543 -52.74651367 366.19163086 -52.93052734 367.15966797 -53.12011719 C403.83139106 -60.19874186 450.50169374 -66.48440562 483.875 -45.75 C494.1198258 -38.43822473 499.38208853 -28.62083147 502.3125 -16.5625 C506.82574953 24.98114631 478.08074285 65.89723056 455.46484375 98.3046875 C453.38476959 101.17805957 453.38476959 101.17805957 452.3125 103.4375 C451.6525 103.4375 450.9925 103.4375 450.3125 103.4375 C449.9825 104.7575 449.6525 106.0775 449.3125 107.4375 C448.6525 107.4375 447.9925 107.4375 447.3125 107.4375 C447.0753125 107.97246094 446.838125 108.50742187 446.59375 109.05859375 C444.95459925 112.10201695 442.92345316 114.77587675 440.8125 117.5 C440.37470215 118.06783203 439.9369043 118.63566406 439.48583984 119.22070312 C435.72633258 124.03308702 431.71289672 128.5406592 427.5390625 133 C425.24914082 135.43810922 425.24914082 135.43810922 423.1484375 138.25 C422.23964844 139.3328125 422.23964844 139.3328125 421.3125 140.4375 C420.6525 140.4375 419.9925 140.4375 419.3125 140.4375 C419.065 141.05625 418.8175 141.675 418.5625 142.3125 C417.07509631 144.84108627 415.87571991 145.15589004 413.3125 146.4375 C413.02375 147.015 412.735 147.5925 412.4375 148.1875 C410.76894042 151.52461916 408.19759128 154.08552342 405.3125 156.4375 C404.6525 156.4375 403.9925 156.4375 403.3125 156.4375 C402.9825 157.4275 402.6525 158.4175 402.3125 159.4375 C400.921875 160.875 400.921875 160.875 399.0625 162.4375 C398.33804688 163.05109375 397.61359375 163.6646875 396.8671875 164.296875 C396.02414062 165.00328125 395.18109375 165.7096875 394.3125 166.4375 C393.34570312 167.26765625 392.37890625 168.0978125 391.3828125 168.953125 C362.9451359 193.34914551 331.97955127 213.97008992 298.3125 230.4375 C297.63413086 230.77040039 296.95576172 231.10330078 296.25683594 231.44628906 C274.40951039 242.11445805 251.599504 250.50404378 228.3125 257.4375 C227.64766602 257.63698242 226.98283203 257.83646484 226.29785156 258.04199219 C205.8401301 264.12348813 185.13706651 268.41226226 164 271.25 C163.22103363 271.35513916 162.44206726 271.46027832 161.63949585 271.56860352 C147.2704276 273.48612403 133.02944685 274.59175867 118.5234375 274.60546875 C117.25891754 274.60879715 115.99439758 274.61212555 114.69155884 274.61555481 C112.03440792 274.62058058 109.37735956 274.6234017 106.72021484 274.62280273 C104.04241143 274.6227217 101.36477992 274.62963928 98.68701172 274.64331055 C83.82401399 274.71365172 69.17413614 274.56867108 54.41638184 272.70053101 C51.17168666 272.29487351 47.91918773 271.96217688 44.66796875 271.61328125 C-3.69363624 265.94533564 -52.52013967 252.19542183 -95.6875 229.4375 C-97.87425086 228.37345903 -100.06178624 227.31102923 -102.25 226.25 C-116.67610951 219.02073613 -130.5587044 210.8427535 -143.84326172 201.69042969 C-145.85897526 200.32100397 -147.89693 198.99013444 -149.94140625 197.6640625 C-150.64088379 197.20789551 -151.34036133 196.75172852 -152.06103516 196.28173828 C-153.41044075 195.40288481 -154.76287232 194.52865555 -156.11865234 193.65966797 C-157.6767576 192.63727929 -159.18774023 191.54370578 -160.6875 190.4375 C-160.6875 189.7775 -160.6875 189.1175 -160.6875 188.4375 C-161.72003906 188.11458984 -161.72003906 188.11458984 -162.7734375 187.78515625 C-166.54134673 186.0426245 -169.23439302 183.62334019 -172.3125 180.875 C-173.55638101 179.78541783 -174.80118311 178.69688636 -176.046875 177.609375 C-176.66111328 177.07119141 -177.27535156 176.53300781 -177.90820312 175.97851562 C-180.41613868 173.80643972 -182.98459294 171.71324873 -185.5625 169.625 C-188.85533923 166.94194581 -192.14036545 164.25312152 -195.375 161.5 C-196.01824219 160.95472656 -196.66148437 160.40945313 -197.32421875 159.84765625 C-198.6875 158.4375 -198.6875 158.4375 -198.6875 156.4375 C-199.22375 156.23125 -199.76 156.025 -200.3125 155.8125 C-203.60728009 153.90499574 -206.28113628 151.38930616 -208.6875 148.4375 C-208.6875 147.7775 -208.6875 147.1175 -208.6875 146.4375 C-209.30625 146.19 -209.925 145.9425 -210.5625 145.6875 C-213.07460296 144.20979238 -213.44857344 142.99794823 -214.6875 140.4375 C-215.6775 140.1075 -216.6675 139.7775 -217.6875 139.4375 C-217.6875 138.7775 -217.6875 138.1175 -217.6875 137.4375 C-218.3475 137.4375 -219.0075 137.4375 -219.6875 137.4375 C-221.12299726 135.84415761 -222.48577327 134.18498918 -223.8125 132.5 C-226.7474105 128.82547321 -229.71491174 125.23279477 -232.875 121.75 C-242.6875 110.81663327 -242.6875 110.81663327 -242.6875 107.4375 C-243.3475 107.4375 -244.0075 107.4375 -244.6875 107.4375 C-245.0175 106.1175 -245.3475 104.7975 -245.6875 103.4375 C-246.3475 103.4375 -247.0075 103.4375 -247.6875 103.4375 C-249.1328125 101.41796875 -249.1328125 101.41796875 -250.8125 98.625 C-253.23988392 94.68300876 -255.76210877 90.93531485 -258.5625 87.25 C-262.82674353 81.48706116 -266.22296692 75.35345223 -269.6640625 69.08203125 C-271.10185565 66.46493201 -272.60300784 63.93009552 -274.25 61.4375 C-283.64570549 46.71433263 -291.20659406 29.28030224 -295.6875 12.4375 C-295.91308594 11.65890625 -296.13867188 10.8803125 -296.37109375 10.078125 C-300.03834826 -4.59089305 -298.86355921 -21.32152309 -291.0625 -34.375 C-280.33159223 -49.0226891 -261.97928304 -55.10692011 -244.75 -57.8125 C-162.08578823 -67.73721473 -74.45581099 -31.87060009 0 0 Z " fill="#0BF15D" transform="translate(395.6875,630.5625)"/>
<path d="M0 0 C2.19891424 0.48071041 4.40848849 0.914843 6.62548828 1.30371094 C15.3865975 3.02262465 15.3865975 3.02262465 18.38989258 7.12255859 C19.16158238 8.46568123 19.89424611 9.83187878 20.58911133 11.21630859 C21.39432284 12.65814964 22.20031681 14.09955399 23.00708008 15.54052734 C23.38654785 16.24870605 23.76601563 16.95688477 24.15698242 17.68652344 C25.7525413 20.57912625 27.56675426 23.28203859 29.40161133 26.02880859 C32.27661133 30.35455744 32.27661133 30.35455744 32.27661133 33.71630859 C32.93661133 33.71630859 33.59661133 33.71630859 34.27661133 33.71630859 C34.67879883 34.53808594 34.67879883 34.53808594 35.08911133 35.37646484 C37.37023297 39.99123396 39.71984117 44.55363399 42.18554688 49.07299805 C53.91146313 70.65725643 64.72711733 96.97428128 57.65161133 121.84130859 C53.34046177 133.69321451 45.67963203 142.09552329 34.52661133 147.96630859 C-3.69499638 165.66238544 -51.13102425 157.71662218 -90.72338867 148.71630859 C-92.21011059 148.39480419 -93.69707229 148.0744056 -95.18432617 147.75537109 C-106.54987084 145.25906283 -117.6783856 141.91009901 -128.82202148 138.57910156 C-131.43929643 137.80079042 -134.06037083 137.03812824 -136.68432617 136.28271484 C-166.330217 127.68323677 -195.30047667 116.72124906 -223.72338867 104.71630859 C-224.33569336 104.45897949 -224.94799805 104.20165039 -225.57885742 103.93652344 C-234.04549388 100.37340538 -242.39655565 96.59295917 -250.72338867 92.71630859 C-255.74733024 90.40619261 -260.78256928 88.12458544 -265.84838867 85.90771484 C-275.22802527 81.79475185 -284.44063574 77.4590632 -293.56616211 72.81103516 C-297.60860913 70.75961682 -301.66734536 68.7406713 -305.72338867 66.71630859 C-310.56402695 64.29853497 -315.4038391 61.87932509 -320.23510742 59.44287109 C-326.99760426 56.03680617 -333.7607433 52.70029947 -340.72338867 49.71630859 C-338.30985198 46.09600355 -336.73203596 45.6314901 -332.74682617 44.00927734 C-332.14872131 43.76316711 -331.55061646 43.51705688 -330.93438721 43.26348877 C-328.99271189 42.46760084 -327.04583573 41.68545466 -325.09838867 40.90380859 C-323.76791471 40.36214442 -322.43767387 39.81990726 -321.10766602 39.27709961 C-313.08530178 36.01477001 -305.03025924 32.85006193 -296.88745117 29.89990234 C-294.75908857 29.10373707 -292.65361898 28.24380486 -290.57495117 27.32568359 C-285.33322932 25.05186081 -279.89232661 23.32605991 -274.47338867 21.52880859 C-273.29115723 21.13661133 -272.10892578 20.74441406 -270.89086914 20.34033203 C-243.50476954 11.3336058 -215.97648191 4.35874979 -187.72338867 -1.28369141 C-186.97702148 -1.43580078 -186.2306543 -1.58791016 -185.46166992 -1.74462891 C-174.4709486 -3.96370788 -163.40606043 -5.16230208 -152.25366211 -6.28222656 C-151.09382812 -6.39872559 -149.93399414 -6.51522461 -148.73901367 -6.63525391 C-147.18102051 -6.78728271 -147.18102051 -6.78728271 -145.59155273 -6.94238281 C-142.80136154 -7.22749425 -142.80136154 -7.22749425 -140.40771484 -7.7902832 C-136.54020469 -8.50117343 -132.68241863 -8.64678228 -128.75854492 -8.82666016 C-127.87957047 -8.8680864 -127.00059601 -8.90951263 -126.09498596 -8.95219421 C-83.81334511 -10.82301359 -41.42843683 -9.16513365 0 0 Z " fill="#03045D" transform="translate(838.723388671875,281.28369140625)"/>
<path d="M0 0 C0.87889893 0.37600342 1.75779785 0.75200684 2.66333008 1.1394043 C17.84450696 7.65092102 17.84450696 7.65092102 25.1640625 11.36132812 C29.51288115 13.53969092 33.91989573 15.59928468 38.3125 17.6875 C47.701444 22.16463878 57.02959091 26.74525309 66.3125 31.4375 C68.91527526 32.75278145 71.51935245 34.06541751 74.125 35.375 C75.08792969 35.85996948 75.08792969 35.85996948 76.0703125 36.35473633 C79.85772224 38.24983911 83.66877975 40.08269381 87.5078125 41.87109375 C88.37946045 42.27787354 89.2511084 42.68465332 90.14916992 43.10375977 C91.85760901 43.89775976 93.56864908 44.68619164 95.2824707 45.46850586 C96.05421631 45.8269458 96.82596191 46.18538574 97.62109375 46.5546875 C98.31001709 46.87034668 98.99894043 47.18600586 99.70874023 47.51123047 C101.3125 48.4375 101.3125 48.4375 102.3125 50.4375 C89.10520423 56.47608479 75.71792213 61.9749715 62.20556641 67.29296875 C59.69731267 68.28526356 57.19677545 69.29367928 54.69921875 70.3125 C34.61141162 78.43738525 13.79460128 84.62954046 -7.22460938 89.82617188 C-9.43991402 90.37604527 -11.65030594 90.94131006 -13.859375 91.515625 C-33.95728348 96.68365861 -54.14035571 100.55011521 -74.6875 103.4375 C-75.72036133 103.58461426 -76.75322266 103.73172852 -77.81738281 103.88330078 C-80.81453093 104.30675895 -83.81297151 104.7187718 -86.8125 105.125 C-87.67488281 105.24439941 -88.53726563 105.36379883 -89.42578125 105.48681641 C-106.10912084 107.66688215 -122.79933482 107.59659157 -139.59545898 107.56787109 C-142.28005182 107.5633139 -144.9645771 107.56330615 -147.64916992 107.56787109 C-167.86603508 107.59997508 -187.56179937 107.19078006 -207.5625 104.125 C-208.29774902 104.0145636 -209.03299805 103.9041272 -209.79052734 103.79034424 C-219.92852152 102.26596396 -230.0504449 100.67912884 -240.02734375 98.29296875 C-243.55769694 97.40260629 -243.55769694 97.40260629 -246.69140625 97.05078125 C-251.83761245 96.19438968 -254.21594252 94.24046454 -257.26586914 89.98779297 C-259.0322569 87.32161322 -260.6743199 84.59471401 -262.28662109 81.83300781 C-263.80212932 79.24148347 -265.36144867 76.67951186 -266.92578125 74.1171875 C-273.37377768 63.47561492 -279.44744138 52.72577118 -284.6875 41.4375 C-284.99913086 40.77024902 -285.31076172 40.10299805 -285.63183594 39.41552734 C-289.70829124 30.61380527 -293.18760637 21.8340851 -295.6875 12.4375 C-295.91308594 11.65890625 -296.13867188 10.8803125 -296.37109375 10.078125 C-300.03834826 -4.59089305 -298.86355921 -21.32152309 -291.0625 -34.375 C-280.33159223 -49.0226891 -261.97928304 -55.10692011 -244.75 -57.8125 C-162.08578823 -67.73721473 -74.45581099 -31.87060009 0 0 Z " fill="#03045D" transform="translate(395.6875,630.5625)"/>
</svg>
